<?xml version="1.0" standalone="no"?>
<!DOCTYPE svg PUBLIC "-//W3C//DTD SVG 20010904//EN" "http://www.w3.org/TR/2001/REC-SVG-20010904/DTD/svg10.dtd">
<!-- Created using Krita: https://krita.org -->
<svg xmlns="http://www.w3.org/2000/svg" 
    xmlns:xlink="http://www.w3.org/1999/xlink"
    xmlns:krita="http://krita.org/namespaces/svg/krita"
    xmlns:sodipodi="http://sodipodi.sourceforge.net/DTD/sodipodi-0.dtd"
    width="199.68pt"
    height="147.84pt"
    viewBox="0 0 199.68 147.84">
<defs/>
<ellipse id="shape0" transform="translate(51.84, 25.2)" rx="50.76" ry="48" cx="50.76" cy="48" fill="none" stroke="#ffc300" stroke-width="9.6" stroke-linecap="square" stroke-linejoin="bevel"/><path id="shape1" transform="translate(78.2463378371466, 64.7193203571944)" fill="none" stroke="#ffc300" stroke-width="9.6" stroke-linecap="square" stroke-linejoin="bevel" d="M0.953657 9.68067C-2.2861 9.68067 3.55022 3.33594 6.23366 1.52068C12.6663 -2.83083 22.6621 3.25492 28.3137 6.08067C28.6209 6.23428 38.8381 10.4362 37.1937 12.0807" sodipodi:nodetypes="cccc"/><path id="shape2" transform="translate(69.3599954087722, 64.0799957582774)" fill="none" stroke="#ffc300" stroke-width="9.6" stroke-linecap="square" stroke-linejoin="bevel" d="M0 0C13.1905 0 25.2072 29.52 37.44 29.52" sodipodi:nodetypes="cc"/><path id="shape3" transform="translate(77.2799948845143, 65.9999956311846)" fill="none" stroke="#ffc300" stroke-width="9.6" stroke-linecap="square" stroke-linejoin="bevel" d="M0 0C11.9217 0 25.5858 13.8635 35.28 19.68" sodipodi:nodetypes="cc"/><path id="shape4" transform="translate(66.7056682832303, 68.8799954405454)" fill="none" stroke="#ffc300" stroke-width="9.6" stroke-linecap="square" stroke-linejoin="bevel" d="M15.6143 31.2C9.41822 31.2 -3.66195 6.95442 0.974327 0" sodipodi:nodetypes="cc"/><path id="shape5" transform="translate(63.1055528631588, 66.4799955994114)" fill="none" stroke="#ffc300" stroke-width="9.6" stroke-linecap="square" stroke-linejoin="bevel" d="M7.93444 34.32C-0.700753 34.32 0.014443 6.31971 0.014443 0" sodipodi:nodetypes="cc"/><path id="shape6" transform="translate(56.7645281222494, 61.1999959489166)" fill="none" stroke="#ffc300" stroke-width="9.6" stroke-linecap="square" stroke-linejoin="bevel" d="M2.75547 24.72C2.75547 18.781 -2.93215 4.96762 2.03547 0" sodipodi:nodetypes="cc"/><path id="shape7" transform="translate(60.4799959965764, 50.6399966479271)" fill="none" stroke="#ffc300" stroke-width="9.6" stroke-linecap="square" stroke-linejoin="bevel" d="M0 20.4C0 3.68654 6.19483 2.74503 19.92 0" sodipodi:nodetypes="cc"/><path id="shape8" transform="translate(64.7999957106176, 56.7385980454391)" fill="none" stroke="#ffc300" stroke-width="9.6" stroke-linecap="square" stroke-linejoin="bevel" d="M0 2.3014C9.67332 -3.5026 27.7943 3.5014 38.4 3.5014" sodipodi:nodetypes="cc"/><path id="shape9" transform="translate(67.1999955517516, 59.4499720234529)" fill="none" stroke="#ffc300" stroke-width="9.6" stroke-linecap="square" stroke-linejoin="bevel" d="M0 0.790024C11.8645 0.790024 30.449 -2.10547 41.04 3.19002" sodipodi:nodetypes="cc"/><path id="shape10" transform="translate(70.5599953293392, 49.4946329402305)" fill="none" stroke="#ffc300" stroke-width="9.6" stroke-linecap="square" stroke-linejoin="bevel" d="M0 2.10536C12.2724 -1.98543 26.5931 1.14536 39.6 1.14536" sodipodi:nodetypes="cc"/><path id="shape11" transform="translate(66.239995615298, 35.2799976646696)" fill="none" stroke="#ffc300" stroke-width="9.6" stroke-linecap="square" stroke-linejoin="bevel" d="M0 14.88C7.90188 6.97812 14.5504 0 26.64 0" sodipodi:nodetypes="cc"/><path id="shape12" transform="translate(72.2399952181329, 40.621402620029)" fill="none" stroke="#ffc300" stroke-width="9.6" stroke-linecap="square" stroke-linejoin="bevel" d="M0 8.33859C4.00631 6.55801 48.24 -5.99491 48.24 3.53859" sodipodi:nodetypes="cc"/><path id="shape13" transform="translate(98.6399934706068, 33.5999977758758)" fill="none" stroke="#ffc300" stroke-width="9.6" stroke-linecap="square" stroke-linejoin="bevel" d="M0 0C8.49566 0 33.84 6.62125 33.84 16.08" sodipodi:nodetypes="cc"/><path id="shape14" transform="translate(100.079993375287, 32.3999978553088)" fill="none" stroke="#ffc300" stroke-width="9.6" stroke-linecap="square" stroke-linejoin="bevel" d="M0 0C8.29869 0 30.48 5.54712 30.48 16.8" sodipodi:nodetypes="cc"/><path id="shape15" transform="translate(119.999992056699, 35.9999976170098)" fill="none" stroke="#ffc300" stroke-width="9.6" stroke-linecap="square" stroke-linejoin="bevel" d="M0 0C7.59872 3.37721 23.7046 7.07822 27.36 15.12C27.7062 15.8816 28.687 21.36 27.12 21.36" sodipodi:nodetypes="ccc"/><path id="shape16" transform="translate(131.999991262369, 44.3999970609787)" fill="none" stroke="#ffc300" stroke-width="9.6" stroke-linecap="square" stroke-linejoin="bevel" d="M0 0C12.5608 8.97198 17.28 25.2382 17.28 40.56" sodipodi:nodetypes="cc"/><path id="shape17" transform="translate(134.399991103503, 58.0799961554424)" fill="none" stroke="#ffc300" stroke-width="9.6" stroke-linecap="square" stroke-linejoin="bevel" d="M0 0C14.2249 0 6.72941 30.2306 0.24 36.72" sodipodi:nodetypes="cc"/><path id="shape18" transform="translate(134.399991103503, 79.6799947256483)" fill="none" stroke="#ffc300" stroke-width="9.6" stroke-linecap="square" stroke-linejoin="bevel" d="M6.72 0C17.9153 0 1.39288 19.7271 0 21.12" sodipodi:nodetypes="cc"/><path id="shape19" transform="translate(74.6399950592669, 78.7199947891947)" fill="none" stroke="#ffc300" stroke-width="9.6" stroke-linecap="square" stroke-linejoin="bevel" d="M0 1.92C9.90534 1.92 19.8329 0 29.52 0" sodipodi:nodetypes="cc"/><path id="shape20" transform="translate(78.2399948209679, 69.3599954087721)" fill="none" stroke="#ffc300" stroke-width="9.6" stroke-linecap="square" stroke-linejoin="bevel" d="M0 0C4.26718 0 13.6634 32.1434 18 36.48" sodipodi:nodetypes="cc"/><path id="shape21" transform="translate(72.2399952181329, 69.3599954087721)" fill="none" stroke="#ffc300" stroke-width="9.6" stroke-linecap="square" stroke-linejoin="bevel" d="M0 0C3.95839 7.91678 10.0015 14.4046 12.96 23.28" sodipodi:nodetypes="cc"/><path id="shape22" transform="translate(68.3999954723186, 76.5599949321741)" fill="none" stroke="#ffc300" stroke-width="9.6" stroke-linecap="square" stroke-linejoin="bevel" d="M0 0C2.8653 2.8653 11.5995 19.44 12.72 19.44" sodipodi:nodetypes="cc"/><path id="shape23" transform="translate(72.7199951863597, 90.4799940107512)" fill="none" stroke="#ffc300" stroke-width="9.6" stroke-linecap="square" stroke-linejoin="bevel" d="M0 0C0 8.72292 13.8031 24 23.04 24" sodipodi:nodetypes="cc"/><path id="shape24" transform="translate(68.3999954723186, 99.5999934070604)" fill="none" stroke="#ffc300" stroke-width="9.6" stroke-linecap="square" stroke-linejoin="bevel" d="M0 0C5.13542 5.13542 17.4063 18.48 25.2 18.48" sodipodi:nodetypes="cc"/><path id="shape25" transform="translate(79.9199947097617, 99.359993422947)" fill="none" stroke="#ffc300" stroke-width="9.6" stroke-linecap="square" stroke-linejoin="bevel" d="M0 10.08C14.4765 19.731 46.2077 12.8323 59.04 0" sodipodi:nodetypes="cc"/><path id="shape26" transform="translate(91.6799939313182, 95.9999936453594)" fill="none" stroke="#ffc300" stroke-width="9.6" stroke-linecap="square" stroke-linejoin="bevel" d="M0 10.32C12.6629 10.32 48.24 0.0892291 48.24 0" sodipodi:nodetypes="cc"/><path id="shape27" transform="translate(87.1199942331637, 94.7999937247924)" fill="none" stroke="#ffc300" stroke-width="9.6" stroke-linecap="square" stroke-linejoin="bevel" d="M0 6.96C9.96842 4.96632 42.3757 5.1443 47.52 0" sodipodi:nodetypes="cc"/><path id="shape28" transform="translate(94.3199937565656, 83.9999944396895)" fill="none" stroke="#ffc300" stroke-width="9.6" stroke-linecap="square" stroke-linejoin="bevel" d="M0 9.36C11.283 5.59901 21.7714 0 34.08 0" sodipodi:nodetypes="cc"/><path id="shape29" transform="translate(108.71999280337, 90.4799940107512)" fill="none" stroke="#ffc300" stroke-width="9.6" stroke-linecap="square" stroke-linejoin="bevel" d="M0 6.24C3.66548 5.62909 17.2173 1.98275 19.2 0" sodipodi:nodetypes="cc"/><path id="shape30" transform="translate(115.199992374431, 77.9999948368545)" fill="none" stroke="#ffc300" stroke-width="9.6" stroke-linecap="square" stroke-linejoin="bevel" d="M0 10.56C6.92999 7.09501 15.2069 4.61479 21.36 0" sodipodi:nodetypes="cc"/><path id="shape31" transform="translate(116.159992310885, 66.9599955676382)" fill="none" stroke="#ffc300" stroke-width="9.6" stroke-linecap="square" stroke-linejoin="bevel" d="M0 25.2C12.6927 25.2 14.88 10.1522 14.88 0" sodipodi:nodetypes="cc"/><path id="shape32" transform="translate(125.519991691307, 63.3599958059372)" fill="none" stroke="#ffc300" stroke-width="9.6" stroke-linecap="square" stroke-linejoin="bevel" d="M0 27.12C5.20393 27.12 9.84 4.19923 9.84 0" sodipodi:nodetypes="cc"/><path id="shape33" transform="translate(112.559992549184, 52.3199965367209)" fill="none" stroke="#ffc300" stroke-width="9.6" stroke-linecap="square" stroke-linejoin="bevel" d="M0 33.36C8.3342 25.0258 5.92633 9.4705 12.24 0" sodipodi:nodetypes="cc"/><path id="shape34" transform="translate(119.759992072586, 50.3999966638137)" fill="none" stroke="#ffc300" stroke-width="9.6" stroke-linecap="square" stroke-linejoin="bevel" d="M0 24C2.40823 17.3774 8.88 6.57699 8.88 0" sodipodi:nodetypes="cc"/><path id="shape35" transform="translate(121.919991929606, 57.3599962031022)" fill="none" stroke="#ffc300" stroke-width="9.6" stroke-linecap="square" stroke-linejoin="bevel" d="M0 23.76C1.80635 16.5346 3.22871 5.95694 7.2 0" sodipodi:nodetypes="cc"/><path id="shape36" transform="translate(103.199993168761, 46.3199969338859)" fill="none" stroke="#ffc300" stroke-width="9.6" stroke-linecap="square" stroke-linejoin="bevel" d="M0 39.12C6.1059 26.9082 10.5347 12.6633 15.6 0" sodipodi:nodetypes="cc"/><path id="shape37" transform="translate(105.839992994009, 44.8799970292055)" fill="none" stroke="#ffc300" stroke-width="9.6" stroke-linecap="square" stroke-linejoin="bevel" d="M0 34.8C0 22.6803 6.96 11.9164 6.96 0" sodipodi:nodetypes="cc"/><path id="shape38" transform="translate(98.3999934864934, 50.4037806908654)" fill="none" stroke="#ffc300" stroke-width="9.6" stroke-linecap="square" stroke-linejoin="bevel" d="M0 15.3562C2.85545 9.64531 5.70267 -1.78289 11.76 0.236216" sodipodi:nodetypes="cc"/><path id="shape39" transform="translate(97.9199935182666, 53.5199964572879)" fill="none" stroke="#ffc300" stroke-width="9.6" stroke-linecap="square" stroke-linejoin="bevel" d="M0 4.32C3.21951 3.24683 5.70204 0 9.6 0" sodipodi:nodetypes="cc"/><path id="shape40" transform="translate(102.240000231361, 11.2800000255257)" fill="none" stroke="#ffc300" stroke-width="9.6" stroke-linecap="square" stroke-linejoin="miter" stroke-miterlimit="2" d="M0.24 13.92L0 0" sodipodi:nodetypes="cc"/><path id="shape41" transform="translate(65.0400001471801, 22.3200000505083)" fill="none" stroke="#ffc300" stroke-width="9.6" stroke-linecap="square" stroke-linejoin="miter" stroke-miterlimit="2" d="M6 9.36L0 0" sodipodi:nodetypes="cc"/><path id="shape42" transform="translate(41.7600000944994, 48.2400001091631)" fill="none" stroke="#ffc300" stroke-width="9.6" stroke-linecap="square" stroke-linejoin="miter" stroke-miterlimit="2" d="M9.84 5.52L0 0" sodipodi:nodetypes="cc"/><path id="shape43" transform="translate(40.3200000912408, 79.9200001808523)" fill="none" stroke="#ffc300" stroke-width="9.6" stroke-linecap="square" stroke-linejoin="miter" stroke-miterlimit="2" d="M7.68 0L0 1.92" sodipodi:nodetypes="cc"/><path id="shape44" transform="translate(53.2800001205682, 107.520000243309)" fill="none" stroke="#ffc300" stroke-width="9.6" stroke-linecap="square" stroke-linejoin="miter" stroke-miterlimit="2" d="M6.72 0L0 5.76" sodipodi:nodetypes="cc"/><path id="shape45" transform="translate(85.2000001928005, 123.600000279696)" fill="none" stroke="#ffc300" stroke-width="9.6" stroke-linecap="square" stroke-linejoin="miter" stroke-miterlimit="2" d="M1.92 0L0 7.44" sodipodi:nodetypes="cc"/><path id="shape46" transform="translate(120.960000273722, 123.360000279153)" fill="none" stroke="#ffc300" stroke-width="9.6" stroke-linecap="square" stroke-linejoin="miter" stroke-miterlimit="2" d="M0 0L2.64 8.16" sodipodi:nodetypes="cc"/><path id="shape47" transform="translate(144.480000326946, 108.720000246024)" fill="none" stroke="#ffc300" stroke-width="9.6" stroke-linecap="square" stroke-linejoin="miter" stroke-miterlimit="2" d="M0 0L6 5.52" sodipodi:nodetypes="cc"/><path id="shape48" transform="translate(157.200000355731, 83.0400001879126)" fill="none" stroke="#ffc300" stroke-width="9.6" stroke-linecap="square" stroke-linejoin="miter" stroke-miterlimit="2" d="M0 0L8.88 0" sodipodi:nodetypes="cc"/><path id="shape49" transform="translate(153.840000348127, 49.4400001118786)" fill="none" stroke="#ffc300" stroke-width="9.6" stroke-linecap="square" stroke-linejoin="miter" stroke-miterlimit="2" d="M0 4.8L7.68 0" sodipodi:nodetypes="cc"/><path id="shape50" transform="translate(135.120000305765, 24.00000005431)" fill="none" stroke="#ffc300" stroke-width="9.6" stroke-linecap="square" stroke-linejoin="miter" stroke-miterlimit="2" d="M0 7.68L7.44 0" sodipodi:nodetypes="cc"/><path id="shape51" transform="translate(38.6399977843157, 30.1403422875085)" fill="none" stroke="#9a9a9a" stroke-width="9.6" stroke-linecap="square" stroke-linejoin="bevel" d="M0 3.45966C11.0704 3.45966 22.1719 14.5367 33.84 11.6197C45.2986 8.755 53.122 -1.09289 66.24 0.099656C85.7513 1.87341 99.0274 22.9923 118.32 3.69966" sodipodi:nodetypes="cccc"/><path id="shape52" transform="translate(37.1999978668878, 56.6496130951796)" fill="none" stroke="#9a9a9a" stroke-width="9.6" stroke-linecap="square" stroke-linejoin="bevel" d="M0 10.5504C8.01232 10.5504 16.1127 3.5822 23.76 1.67038C43.5304 -3.27223 59.7409 13.4336 78.48 10.3104C90.4614 8.31349 99.1263 -3.36752 112.08 0.950384C113.908 1.55955 124.32 5.30128 124.32 6.95038" sodipodi:nodetypes="ccccc"/><path id="shape53" transform="translate(35.7599979494599, 85.9442843384419)" fill="none" stroke="#9a9a9a" stroke-width="9.6" stroke-linecap="square" stroke-linejoin="bevel" d="M0 1.41571C6.8862 1.41571 19.0399 10.3071 27.36 11.4957C41.861 13.5673 48.1666 4.01407 60.48 0.935711C81.047 -4.20605 96.5887 13.6402 114.96 11.0157C116.685 10.7693 118.589 9.49073 120.24 8.85571C122.323 8.05439 127.68 4.73587 127.68 1.89571" sodipodi:nodetypes="cccccc"/><path id="shape54" transform="translate(50.159997123739, 110.855563878777)" fill="none" stroke="#9a9a9a" stroke-width="9.6" stroke-linecap="square" stroke-linejoin="bevel" d="M0 10.3444C6.35603 10.3444 10.6336 3.27989 16.08 1.46443C16.2318 1.41383 16.4 1.46443 16.56 1.46443C31.2225 1.46443 44.4451 7.80006 59.04 9.62443C72.9929 11.3685 80.5145 3.23581 92.4 0.26443C99.2831 -1.45635 105.706 5.78443 110.16 5.78443" sodipodi:nodetypes="cccccc"/>
</svg>
