<?xml version="1.0" standalone="no"?>
<!DOCTYPE svg PUBLIC "-//W3C//DTD SVG 20010904//EN" "http://www.w3.org/TR/2001/REC-SVG-20010904/DTD/svg10.dtd">
<!-- Created using Krita: https://krita.org -->
<svg xmlns="http://www.w3.org/2000/svg" 
    xmlns:xlink="http://www.w3.org/1999/xlink"
    xmlns:krita="http://krita.org/namespaces/svg/krita"
    xmlns:sodipodi="http://sodipodi.sourceforge.net/DTD/sodipodi-0.dtd"
    width="199.68pt"
    height="147.84pt"
    viewBox="0 0 199.68 147.84">
<defs/>
<ellipse id="shape0" transform="translate(49.2, 21.84)" rx="51.48" ry="50.4" cx="51.48" cy="50.4" fill="none" stroke="#ffe700" stroke-width="7.679988" stroke-linecap="square" stroke-linejoin="bevel"/><path id="shape1" transform="translate(80.3156923657793, 52.3779715573824)" fill="none" stroke="#ffe700" stroke-width="7.679988" stroke-linecap="square" stroke-linejoin="bevel" d="M15.0843 39.422C-34.3487 -10.011 55.1336 -9.32688 36.6843 21.422" sodipodi:nodetypes="cc"/><path id="shape2" transform="translate(86.4776252312637, 45.105896706011)" fill="none" stroke="#ffe700" stroke-width="23.411988" stroke-linecap="square" stroke-linejoin="bevel" d="M7.48237 39.1341C-5.08192 39.1341 -0.0649586 5.93231 9.64237 1.3341C10.5516 0.903389 17.2024 -0.94423 17.2024 0.614101" sodipodi:nodetypes="ccc"/><path id="shape3" transform="translate(84.2399952989254, 60.6622128536548)" fill="none" stroke="#ffe700" stroke-width="23.411988" stroke-linecap="square" stroke-linejoin="bevel" d="M0 5.57778C4.41402 -7.66429 43.2649 4.76044 32.4 21.0578" sodipodi:nodetypes="cc"/><path id="shape4" transform="translate(99.7199944350527, 82.0799954194658)" fill="none" stroke="#ffe700" stroke-width="23.411988" stroke-linecap="square" stroke-linejoin="bevel" d="M0 21.6C7.58151 21.6 27.36 8.52551 27.36 0" sodipodi:nodetypes="cc"/><path id="shape5" transform="translate(100.439994394873, 94.6799947163136)" fill="none" stroke="#ffe700" stroke-width="23.411988" stroke-linecap="square" stroke-linejoin="bevel" d="M0 11.16C7.8589 11.16 26.28 11.9962 26.28 0" sodipodi:nodetypes="cc"/><path id="shape6" transform="translate(114.11999363145, 71.9999959819875)" fill="none" stroke="#ffe700" stroke-width="23.411988" stroke-linecap="square" stroke-linejoin="bevel" d="M0 27.36C9.20423 18.1558 20.52 15.5281 20.52 0" sodipodi:nodetypes="cc"/><path id="shape7" transform="translate(117.71999343055, 43.1999975891925)" fill="none" stroke="#ffe700" stroke-width="23.411988" stroke-linecap="square" stroke-linejoin="bevel" d="M0.36 35.64C8.13834 27.8617 0 8.51265 0 0" sodipodi:nodetypes="cc"/><path id="shape8" transform="translate(131.399992667127, 49.6799972275714)" fill="none" stroke="#ffe700" stroke-width="23.411988" stroke-linecap="square" stroke-linejoin="bevel" d="M1.08 15.84C1.08 10.6895 0 3.82546 0 0" sodipodi:nodetypes="cc"/><path id="shape9" transform="translate(96.1199946359534, 38.1599978704534)" fill="none" stroke="#ffe700" stroke-width="23.411988" stroke-linecap="square" stroke-linejoin="bevel" d="M17.64 0C11.76 0 5.88 0 0 0" sodipodi:nodetypes="cc"/><path id="shape10" transform="translate(72.3599959618975, 67.3199962431583)" fill="none" stroke="#ffe700" stroke-width="23.411988" stroke-linecap="square" stroke-linejoin="bevel" d="M30.96 32.76C17.7348 32.76 0 13.2808 0 0" sodipodi:nodetypes="cc"/><path id="shape11" transform="translate(71.6399960020776, 72.3599959618975)" fill="none" stroke="#ffe700" stroke-width="23.411988" stroke-linecap="square" stroke-linejoin="bevel" d="M17.28 27.72C5.1808 27.72 0 9.29864 0 0" sodipodi:nodetypes="cc"/><path id="shape12" transform="translate(70.2992380095533, 41.0399977097329)" fill="none" stroke="#ffe700" stroke-width="23.411988" stroke-linecap="square" stroke-linejoin="bevel" d="M2.06076 45.36C2.06076 38.0625 -6.88505 0 12.5008 0" sodipodi:nodetypes="cc"/><path id="shape13" transform="translate(80.639995499826, 45.7199974485621)" fill="none" stroke="#ffe700" stroke-width="23.411988" stroke-linecap="square" stroke-linejoin="bevel" d="M0 0C3.16763 0 12.6 2.22328 12.6 5.4" sodipodi:nodetypes="cc"/><path id="shape14" transform="translate(59.2001261725867, 49.3199972476615)" fill="none" stroke="#ffe700" stroke-width="23.411988" stroke-linecap="square" stroke-linejoin="bevel" d="M49.8799 52.56C34.4484 52.56 -15.6877 31.0075 4.87987 10.44C6.70649 8.61338 15.6799 2.11017 15.6799 0" sodipodi:nodetypes="ccc"/><path id="shape15" transform="translate(66.9599962632484, 82.4399953993757)" fill="none" stroke="#ffe700" stroke-width="23.411988" stroke-linecap="square" stroke-linejoin="bevel" d="M27 25.2C18.0956 25.2 0 8.79793 0 0" sodipodi:nodetypes="cc"/><path id="shape16" transform="translate(63.719996444059, 81.7199954395558)" fill="none" stroke="#ffe700" stroke-width="23.411988" stroke-linecap="square" stroke-linejoin="bevel" d="M18 19.8C7.86096 19.8 3.02652 0 0 0" sodipodi:nodetypes="cc"/><path id="shape17" transform="translate(86.759995158295, 82.4399953993757)" fill="none" stroke="#ffe700" stroke-width="23.411988" stroke-linecap="square" stroke-linejoin="bevel" d="M0 18.36C41.2932 18.36 10.0037 38.2363 46.44 1.8C46.9306 1.30936 47.0524 0 47.52 0" sodipodi:nodetypes="ccc"/><path id="shape18" transform="translate(122.759993149289, 88.9199950377546)" fill="none" stroke="#ffe700" stroke-width="23.411988" stroke-linecap="square" stroke-linejoin="bevel" d="M0 5.76C3.01334 5.76 7.63402 0 7.56 0" sodipodi:nodetypes="cc"/><path id="shape19" transform="translate(92.8799948167639, 105.119994133702)" fill="none" stroke="#ffe700" stroke-width="23.411988" stroke-linecap="square" stroke-linejoin="bevel" d="M0 0C5.12366 0 11.3584 3.6 17.64 3.6" sodipodi:nodetypes="cc"/><path id="shape20" transform="translate(120.959993249739, 54.7199969463105)" fill="none" stroke="#ffe700" stroke-width="23.411988" stroke-linecap="square" stroke-linejoin="bevel" d="M0 48.6C12.6996 48.6 29.1 13.26 19.44 3.6C18.8001 2.96007 18.9148 0 17.64 0" sodipodi:nodetypes="ccc"/><path id="shape21" transform="translate(93.9599947564937, 30.2635783712684)" fill="none" stroke="#ffe700" stroke-width="23.411988" stroke-linecap="square" stroke-linejoin="bevel" d="M37.8 16.1764C37.8 2.67702 0 -1.90453 0 0.69642" sodipodi:nodetypes="cc"/><path id="shape22" transform="translate(103.679994214062, 0)" fill="none" stroke="#ffe700" stroke-width="8.0712" stroke-linecap="square" stroke-linejoin="miter" stroke-miterlimit="2" d="M0 19.44L0.36 0" sodipodi:nodetypes="cc"/><path id="shape23" transform="translate(128.159992847938, 8.27999953792857)" fill="none" stroke="#ffe700" stroke-width="8.0712" stroke-linecap="square" stroke-linejoin="miter" stroke-miterlimit="2" d="M0 18.36L11.88 0" sodipodi:nodetypes="cc"/><path id="shape24" transform="translate(146.879991803255, 25.5599985736056)" fill="none" stroke="#ffe700" stroke-width="8.0712" stroke-linecap="square" stroke-linejoin="miter" stroke-miterlimit="2" d="M0 18L19.44 0" sodipodi:nodetypes="cc"/><path id="shape25" transform="translate(155.159991341183, 61.9199965445093)" fill="none" stroke="#ffe700" stroke-width="8.0712" stroke-linecap="square" stroke-linejoin="miter" stroke-miterlimit="2" d="M0 0.36L22.32 0" sodipodi:nodetypes="cc"/><path id="shape26" transform="translate(152.279991501904, 89.2799950176645)" fill="none" stroke="#ffe700" stroke-width="8.0712" stroke-linecap="square" stroke-linejoin="miter" stroke-miterlimit="2" d="M0 0L19.44 6.84" sodipodi:nodetypes="cc"/><path id="shape27" transform="translate(138.239992285416, 110.519993832351)" fill="none" stroke="#ffe700" stroke-width="8.0712" stroke-linecap="square" stroke-linejoin="miter" stroke-miterlimit="2" d="M0 0L17.64 12.6" sodipodi:nodetypes="cc"/><path id="shape28" transform="translate(122.759993149289, 119.519993330099)" fill="none" stroke="#ffe700" stroke-width="8.0712" stroke-linecap="square" stroke-linejoin="miter" stroke-miterlimit="2" d="M0 0L3.96 19.08" sodipodi:nodetypes="cc"/><path id="shape29" transform="translate(99.84, 125.639992988568)" fill="none" stroke="#ffe700" stroke-width="8.0712" stroke-linecap="square" stroke-linejoin="miter" stroke-miterlimit="2" d="M0 0L0 15.48" sodipodi:nodetypes="cc"/><path id="shape30" transform="translate(74.1599958614472, 122.039993189469)" fill="none" stroke="#ffe700" stroke-width="8.0712" stroke-linecap="square" stroke-linejoin="miter" stroke-miterlimit="2" d="M7.2 0L0 16.2" sodipodi:nodetypes="cc"/><path id="shape31" transform="translate(46.7999973882919, 111.239993792171)" fill="none" stroke="#ffe700" stroke-width="8.0712" stroke-linecap="square" stroke-linejoin="miter" stroke-miterlimit="2" d="M14.04 0L0 17.28" sodipodi:nodetypes="cc"/><path id="shape32" transform="translate(31.3199982521646, 92.519994836854)" fill="none" stroke="#ffe700" stroke-width="8.0712" stroke-linecap="square" stroke-linejoin="miter" stroke-miterlimit="2" d="M18.72 0L0 9.36" sodipodi:nodetypes="cc"/><path id="shape33" transform="translate(23.7599986740559, 67.3199962431583)" fill="none" stroke="#ffe700" stroke-width="8.0712" stroke-linecap="square" stroke-linejoin="miter" stroke-miterlimit="2" d="M22.68 0L0 0.72" sodipodi:nodetypes="cc"/><path id="shape34" transform="translate(29.159998372705, 41.7599976695528)" fill="none" stroke="#ffe700" stroke-width="8.0712" stroke-linecap="square" stroke-linejoin="miter" stroke-miterlimit="2" d="M19.8 8.28L0 0" sodipodi:nodetypes="cc"/><path id="shape35" transform="translate(48.2399973079316, 20.5199988548664)" fill="none" stroke="#ffe700" stroke-width="8.0712" stroke-linecap="square" stroke-linejoin="miter" stroke-miterlimit="2" d="M14.4 14.4L0 0" sodipodi:nodetypes="cc"/><path id="shape36" transform="translate(78.4799956203664, 5.75999967855901)" fill="none" stroke="#ffe700" stroke-width="8.0712" stroke-linecap="square" stroke-linejoin="miter" stroke-miterlimit="2" d="M5.4 14.4L0 0" sodipodi:nodetypes="cc"/>
</svg>
